<?xml version="1.0" encoding="UTF-8"?>
<svg width="63.5mm" height="63.5mm" version="1.1" viewBox="0 0 63.5 63.5" xmlns="http://www.w3.org/2000/svg"><rect x="1.8311e-7" y="1.8311e-6" width="63.5" height="63.5" fill="#b3b3b3"/><path d="m12.785 34.133 3.1769-2.3827-3.1769-2.3827zm1.059-7.6775c-2.9228 0-5.2948 2.3721-5.2948 5.2948s2.3721 5.2948 5.2948 5.2948 5.2948-2.3721 5.2948-5.2948-2.3721-5.2948-5.2948-5.2948zm0 9.5307c-2.335 0-4.2359-1.9008-4.2359-4.2359 0-2.335 1.9008-4.2359 4.2359-4.2359s4.2359 1.9008 4.2359 4.2359c0 2.335-1.9008 4.2359-4.2359 4.2359z" fill="#fff" stroke-width=".26458"/><g fill="#fff" stroke-width=".26458" aria-label="myMPD"><path d="m25.464 34.971v-3.2665q0-0.74758-0.20475-1.0333-0.20475-0.2857-0.73806-0.2857-0.54759 0-0.86662 0.41903t-0.31903 1.1809v2.9856h-0.85234v-4.0522q0-0.89996-0.02857-1.0999h0.80948q0.0048 0.02381 0.0095 0.12856 0.0048 0.10476 0.0095 0.24284 0.0095 0.13333 0.01905 0.5095h0.01429q0.27618-0.54759 0.6333-0.76187 0.35712-0.21428 0.87139-0.21428 0.58569 0 0.92376 0.23332 0.34284 0.23332 0.47617 0.74282h0.01429q0.26665-0.51902 0.64283-0.74758 0.38093-0.22856 0.919-0.22856 0.78091 0 1.1333 0.42379 0.35713 0.42379 0.35713 1.3904v3.4332h-0.84758v-3.2665q0-0.74758-0.20475-1.0333-0.20475-0.2857-0.73806-0.2857-0.56188 0-0.87615 0.41903-0.30951 0.41427-0.30951 1.1809v2.9856z"/><path d="m30.84 36.995q-0.35236 0-0.59045-0.05238v-0.64283q0.18094 0.02857 0.39998 0.02857 0.79996 0 1.2666-1.1761l0.08095-0.20475-2.0428-5.1283h0.91424l1.0857 2.8475q0.02381 0.06666 0.05714 0.1619 0.03333 0.09047 0.21428 0.61902 0.18094 0.52855 0.19523 0.59045l0.33332-0.93805 1.1285-3.2808h0.90472l-1.9809 5.1521q-0.31903 0.82377-0.59521 1.2238-0.27618 0.40474-0.61426 0.59997-0.33332 0.19999-0.75711 0.19999z"/><path d="m41.31 34.971v-4.476q0-0.74282 0.04286-1.4285-0.23332 0.85234-0.41903 1.3333l-1.7332 4.5712h-0.63807l-1.7571-4.5712-0.26665-0.80948-0.15714-0.52378 0.01429 0.52855 0.01905 0.89996v4.476h-0.80948v-6.7092h1.1952l1.7856 4.6522q0.09523 0.28094 0.18094 0.60473 0.09047 0.31903 0.11904 0.46188 0.03809-0.19047 0.15714-0.57616 0.1238-0.39046 0.16666-0.49045l1.7523-4.6522h1.1666v6.7092z"/><path d="m48.92 30.281q0 0.95234-0.62378 1.5142-0.61902 0.56188-1.6856 0.56188h-1.9713v2.6142h-0.90948v-6.7092h2.8237q1.1285 0 1.7475 0.52854 0.61902 0.52855 0.61902 1.4904zm-0.91424 0.0095q0-1.2999-1.5618-1.2999h-1.8047v2.6475h1.8428q1.5237 0 1.5237-1.3476z"/><path d="m56.01 31.547q0 1.038-0.40474 1.819-0.40474 0.77615-1.1476 1.1904t-1.7142 0.41427h-2.5094v-6.7092h2.2189q1.7047 0 2.6284 0.8571 0.92853 0.85234 0.92853 2.4285zm-0.91424 0q0-1.2476-0.68568-1.8999-0.68092-0.65711-1.9761-0.65711h-1.2904v5.2521h1.4952q0.73806 0 1.2952-0.32379 0.56188-0.32379 0.86186-0.93329 0.29998-0.6095 0.29998-1.438z"/></g></svg>
