<?xml version="1.0" encoding="UTF-8"?>
<svg width="63.5mm" height="63.5mm" version="1.1" viewBox="0 0 63.5 63.5" xmlns="http://www.w3.org/2000/svg"><g transform="translate(21.167 -117.08)"><rect x="-21.167" y="117.08" width="63.5" height="63.5" fill="#b3b3b3"/><path d="m29.674 133.99v13.978l-6.3634-6.3846-8.4845 8.5057-8.4845-8.4845-8.4845 8.4845-6.3634-6.3846v-9.7148c0-2.3332 1.909-4.2423 4.2423-4.2423h29.696c2.3332 0 4.2423 1.909 4.2423 4.2423zm-6.3634 13.618 6.3634 6.3846v9.6936c0 2.3332-1.909 4.2423-4.2423 4.2423h-29.696c-2.3332 0-4.2423-1.909-4.2423-4.2423v-13.957l6.3634 6.3422 8.4845-8.4845 8.4845 8.4845z" fill="#fff" stroke-width=".26458"/></g></svg>
