<?xml version="1.0" encoding="UTF-8"?>
<svg width="63.5mm" height="63.5mm" version="1.1" viewBox="0 0 63.5 63.5" xmlns="http://www.w3.org/2000/svg"><g transform="translate(269.12 -6.7143)"><rect x="-269.12" y="6.7143" width="63.5" height="63.5" fill="#b3b3b3"/><path d="m-237.37 22.183v-6.1055l-8.1407 8.1407 8.1407 8.1407v-6.1055c6.7364 0 12.211 5.4746 12.211 12.211 0 2.0555-0.5088 4.0093-1.4246 5.6985l2.9714 2.9714c1.5874-2.5033 2.5236-5.4746 2.5236-8.6699 0-8.9955-7.286-16.281-16.281-16.281zm0 28.493c-6.7364 0-12.211-5.4746-12.211-12.211 0-2.0555 0.5088-4.0093 1.4246-5.6985l-2.9714-2.9714c-1.5874 2.5033-2.5236 5.4746-2.5236 8.6699 0 8.9955 7.286 16.281 16.281 16.281v6.1055l8.1407-8.1407-8.1407-8.1407z" fill="#fff" stroke-width=".26458"/></g></svg>
