<?xml version="1.0" encoding="UTF-8"?>
<svg width="63.5mm" height="63.5mm" version="1.1" viewBox="0 0 63.5 63.5" xmlns="http://www.w3.org/2000/svg"><g transform="translate(164.04 -71.726)"><rect x="-164.04" y="71.726" width="63.5" height="63.5" fill="#28a745"/><path d="m-148.61 92.576c-1.3602 0.52172-2.3105 1.9005-2.3105 3.4471v22.359c0 2.0496 1.6583 3.7266 3.7266 3.7266h29.812c2.0682 0 3.7266-1.677 3.7266-3.7266v-22.359c0-2.0682-1.6583-3.7266-3.7266-3.7266h-21.8l15.391-6.2233-1.267-3.093zm7.0059 25.806c-3.093 0-5.5898-2.4968-5.5898-5.5898s2.4968-5.5898 5.5898-5.5898c3.093 0 5.5898 2.4968 5.5898 5.5898s-2.4968 5.5898-5.5898 5.5898zm24.223-14.906h-3.7266v-3.7266h-3.7266v3.7266h-22.359v-7.4531h29.812z" fill="#fff" stroke-width=".26458"/></g></svg>
