<?xml version="1.0" encoding="UTF-8" standalone="no"?>
<svg id="a" width="211.37" height="64" version="1.1" viewBox="0 0 55.92396 16.933333" xmlns="http://www.w3.org/2000/svg"><g id="f"><ellipse id="j" cx="8.4743" cy="8.4667" rx="8.4743" ry="8.4667" fill="#28a745"/><path id="d" d="m3.1572 9.6513h1.1816v-2.3693h-1.1816z" fill="#fff" stroke-width=".26458"/><path id="e" d="m7.8835 14.39h1.1816v-11.847h-1.1816z" fill="#fff" stroke-width=".26458"/><path id="h" d="m5.5203 12.021h1.1816v-7.108h-1.1816z" fill="#fff" stroke-width=".26458"/><path id="c" d="m10.247 4.9127v7.108l5.5703-3.554z" fill="#fff" stroke-width=".26458"/><g id="g" transform="scale(2.0018 2)" stroke="#000" stroke-width=".049978" aria-label="myMPD"><path id="b" d="m9.7296 5.5705v-2.744h0.416v0.38499q0.12919-0.20154 0.34365-0.32298 0.21446-0.12402 0.48834-0.12402 0.30489 0 0.49868 0.12661 0.19637 0.12661 0.27647 0.35398 0.32556-0.48059 0.84749-0.48059 0.40824 0 0.62787 0.22738 0.21962 0.22479 0.21962 0.69505v1.8836h-0.4625v-1.7286q0-0.27905-0.04651-0.40049-0.04392-0.12402-0.16278-0.19895-0.11886-0.074931-0.27905-0.074931-0.28939 0-0.48059 0.19379-0.1912 0.1912-0.1912 0.61495v1.5942h-0.46509v-1.7828q0-0.31006-0.11369-0.46509-0.11369-0.15503-0.37207-0.15503-0.19637 0-0.36432 0.10335-0.16536 0.10335-0.2403 0.30231-0.07493 0.19895-0.07493 0.57361v1.4237z"/><path id="l" d="m14.117 6.6272-0.05168-0.43667q0.15245 0.041341 0.26613 0.041341 0.15503 0 0.24805-0.051677 0.09302-0.051676 0.15245-0.14469 0.04392-0.069763 0.14211-0.34623 0.01292-0.038757 0.04134-0.11369l-1.0413-2.7492h0.50126l0.57102 1.5891q0.1111 0.30231 0.19896 0.63562 0.0801-0.32039 0.1912-0.62529l0.58653-1.5994h0.46509l-1.0439 2.7905q-0.16795 0.45217-0.26097 0.6227-0.12402 0.22996-0.28422 0.3359-0.1602 0.10852-0.38241 0.10852-0.13436 0-0.29972-0.056844z"/><path id="m" d="m16.827 5.5705v-3.7879h0.75448l0.89659 2.682q0.12402 0.37465 0.18087 0.56069 0.0646-0.20671 0.20154-0.6072l0.90692-2.6355h0.67438v3.7879h-0.48318v-3.1704l-1.1007 3.1704h-0.45217l-1.0955-3.2246v3.2246z"/><path id="i" d="m21.251 5.5705v-3.7879h1.4289q0.37724 0 0.57619 0.036173 0.27905 0.046509 0.46767 0.17828 0.18862 0.12919 0.30231 0.36432 0.11627 0.23513 0.11627 0.51676 0 0.48317-0.30748 0.81907-0.30748 0.33331-1.111 0.33331h-0.97152v1.54zm0.50126-1.987h0.97927q0.48576 0 0.68988-0.18087t0.20412-0.50901q0-0.23771-0.12144-0.40566-0.11886-0.17053-0.31523-0.22479-0.12661-0.03359-0.46767-0.03359h-0.96893z"/><path id="k" d="m24.78 5.5705v-3.7879h1.3048q0.44183 0 0.67438 0.05426 0.32556 0.074931 0.55552 0.2713 0.29972 0.25321 0.447 0.64854 0.14986 0.39274 0.14986 0.89917 0 0.4315-0.10077 0.76481-0.10077 0.33331-0.25838 0.55294-0.15761 0.21704-0.34623 0.34365-0.18604 0.12402-0.45217 0.18862-0.26355 0.064596-0.6072 0.064596zm0.50126-0.447h0.80874q0.37465 0 0.58653-0.069763 0.21446-0.069763 0.34106-0.19637 0.17828-0.17828 0.27647-0.47801 0.10077-0.30231 0.10077-0.73122 0-0.59428-0.19637-0.91209-0.19379-0.32039-0.47284-0.42891-0.20154-0.077515-0.64854-0.077515h-0.79582z"/></g></g></svg>